<svg version="1.0" xmlns="http://www.w3.org/2000/svg" viewBox="0 0 1400 1400" preserveAspectRatio="xMidYMid meet">
  <g transform="translate(-2220,1545) scale(0.1,-0.1)" stroke="none">
    <g id="vel" fill="rgb(23, 133, 194)">
      <path d="M27002 15303 c3 -10 1057 -2599 2343 -5753 1285 -3154 2513 -6167 2728 -6695 215 -528 392 -962 394 -964 2 -2 6 -2 9 2 6 5 2684 6416 2684 6424 0 1 -223 3 -495 3 l-495 0 -18 -37 c-10 -21 -387 -950 -838 -2064 -450 -1115 -821 -2025 -824 -2023 -2 3 -1002 2506 -2221 5562 l-2217 5557 -527 3 c-499 2 -527 1 -523 -15z" />
    </g>
  </g>
</svg>
