<svg version="1.0" xmlns="http://www.w3.org/2000/svg" width="3818" height="1352" preserveAspectRatio="xMidYMid meet">
  <g transform="translate(-220,1535) scale(0.1,-0.1)" stroke="none">
    <g id="tomter" fill="#000000">
      <path d="M17290 12030 l0 -3290 465 0 465 0 0 1575 0 1575 360 0 360 0 0 435 0 435 -360 0 -360 0 0 1280 0 1280 -465 0 -465 0 0 -3290z" />
      <path d="M2280 14645 l0 -455 730 0 730 0 0 -2725 0 -2725 483 2 482 3 3 2723 2 2722 725 0 725 0 0 455 0 455 -1940 0 -1940 0 0 -455z" />
      <path d="M7560 12863 c-276 -27 -472 -75 -685 -167 -534 -230 -980 -710 -1159 -1248 -123 -368 -139 -817 -45 -1221 118 -506 435 -956 887 -1260 104 -70 336 -185 447 -222 254 -84 423 -109 725 -110 248 0 336 8 527 51 798 177 1431 813 1587 1594 116 583 14 1174 -281 1620 -97 146 -172 237 -304 366 -360 350 -786 547 -1289 593 -107 10 -329 12 -410 4z m421 -858 c480 -79 824 -427 924 -932 34 -172 36 -480 4 -643 -36 -188 -124 -397 -218 -521 -102 -134 -265 -269 -396 -329 -166 -74 -281 -100 -485 -107 -261 -9 -424 22 -615 117 -313 155 -510 425 -597 817 -19 86 -22 129 -22 343 0 214 3 257 21 340 41 182 117 355 213 481 72 96 217 230 312 289 232 142 549 196 859 145z" />
      <path d="M12280 12855 c-239 -34 -396 -120 -638 -350 l-112 -107 0 181 0 181 -465 0 -465 0 0 -2010 0 -2010 465 0 465 0 0 1088 c0 1077 5 1269 35 1462 78 492 304 730 695 731 110 0 192 -16 258 -50 145 -75 247 -223 305 -441 64 -239 67 -324 67 -1643 l0 -1147 468 2 467 3 6 1205 c6 1228 6 1247 45 1440 87 430 300 630 670 631 185 0 306 -44 407 -150 98 -102 148 -234 188 -497 9 -58 14 -423 18 -1354 l6 -1275 468 -3 468 -2 -4 1392 c-3 1262 -5 1404 -21 1508 -62 415 -179 685 -385 890 -185 185 -414 288 -721 325 -566 69 -1045 -114 -1370 -526 l-37 -47 -44 61 c-23 34 -79 99 -123 145 -288 300 -677 428 -1116 367z" />
      <path d="M21190 12863 c-469 -36 -874 -221 -1177 -536 -319 -332 -502 -762 -554 -1302 -15 -158 -6 -555 16 -695 83 -527 296 -942 638 -1241 372 -324 835 -474 1407 -456 264 9 439 38 645 108 422 143 781 450 1086 928 63 99 77 127 67 136 -10 9 -410 233 -769 431 -4 2 -28 -29 -54 -69 -94 -143 -244 -334 -329 -419 -136 -137 -251 -206 -420 -251 -71 -19 -106 -22 -281 -21 -172 0 -211 3 -276 22 -288 79 -506 260 -633 525 -70 146 -104 267 -124 440 l-8 67 1432 0 1432 0 7 80 c13 150 -9 487 -46 700 -126 720 -551 1248 -1170 1454 -250 84 -593 122 -889 99z m410 -854 c338 -49 581 -263 701 -617 16 -47 29 -87 29 -89 0 -2 -414 -3 -920 -3 l-920 0 6 28 c14 59 80 201 131 280 151 235 408 388 688 411 93 8 180 5 285 -10z" />
      <path d="M25965 12856 c-237 -40 -406 -132 -622 -340 l-113 -108 0 176 0 176 -465 0 -465 0 0 -2010 0 -2010 463 2 462 3 6 1175 c6 1280 4 1242 64 1469 47 174 119 305 221 402 118 111 236 158 416 166 179 9 312 -26 468 -123 41 -25 80 -48 87 -51 8 -3 90 150 223 416 115 232 210 425 210 429 0 14 -255 137 -344 167 -196 66 -438 90 -611 61z" />
    </g>
    <g id="vel" fill="rgb(23, 133, 194)">
      <path d="M27002 15303 c3 -10 1057 -2599 2343 -5753 1285 -3154 2513 -6167 2728 -6695 215 -528 392 -962 394 -964 2 -2 6 -2 9 2 6 5 2684 6416 2684 6424 0 1 -223 3 -495 3 l-495 0 -18 -37 c-10 -21 -387 -950 -838 -2064 -450 -1115 -821 -2025 -824 -2023 -2 3 -1002 2506 -2221 5562 l-2217 5557 -527 3 c-499 2 -527 1 -523 -15z" />
      <path d="M39380 5605 l0 -3275 440 0 440 0 0 3275 0 3275 -440 0 -440 0 0 -3275z" />
      <path d="M36522 6209 c-635 -52 -1139 -396 -1413 -963 -146 -303 -211 -615 -212 -1021 0 -286 26 -485 94 -721 121 -422 400 -796 754 -1014 287 -177 612 -261 1010 -261 693 -1 1173 235 1582 778 100 133 215 315 205 324 -4 3 -171 97 -371 208 -272 151 -366 199 -372 189 -4 -7 -42 -62 -84 -123 -168 -240 -317 -400 -444 -475 -205 -121 -513 -151 -778 -74 -239 69 -437 238 -553 473 -64 129 -99 253 -124 444 l-5 37 1348 0 1348 0 7 81 c13 147 -9 476 -45 669 -67 359 -192 635 -402 887 -344 413 -899 615 -1545 562z m478 -819 c216 -53 389 -184 497 -377 43 -78 102 -227 103 -261 l0 -22 -862 2 c-857 3 -863 3 -860 23 2 11 17 54 33 95 112 291 354 497 654 556 100 19 324 11 435 -16z" />
    </g>
  </g>
</svg>